<svg width="60" height="73" viewBox="0 0 60 73" fill="none" xmlns="http://www.w3.org/2000/svg"><path d="M10.384 5.45l.053-.278v-.283c0-1.022.845-1.889 1.916-1.889h24.706c1.013 0 1.818.764 1.928 1.675l-6.61 34.884-11.282-5.581-1.16-.574-1.214.45-14.78 5.484L10.383 5.45z" stroke="#4481C3" stroke-width="6"/><path d="M23 66V16l37 36.25H38.31l-1.276.313L23 66z" fill="#fff"/><path d="M51 68.238L39.723 73 25 37.762 36.59 33 51 68.238z" fill="#fff"/><path d="M31.596 45.422l5.84-2.439 9.807 23.237-5.84 2.439-9.807-23.237z" fill="#000"/><path d="M26 24v35l9.512-9.063 1.269-.312H52L26 24z" fill="#000"/></svg>