<svg width="73" height="12" viewBox="0 0 73 12" fill="none" xmlns="http://www.w3.org/2000/svg"><path fill-rule="evenodd" clip-rule="evenodd" d="M6.5 9.644L10.517 12 9.451 7.56 13 4.573l-4.674-.386L6.5 0 4.673 4.187 0 4.573 3.549 7.56 2.483 12 6.5 9.644zM21.5 9.644L25.517 12l-1.066-4.44L28 4.573l-4.674-.386L21.5 0l-1.826 4.187L15 4.573l3.549 2.987L17.483 12 21.5 9.644zM36.5 9.644L40.517 12l-1.066-4.44L43 4.573l-4.673-.386L36.5 0l-1.827 4.187L30 4.573l3.549 2.987L32.483 12 36.5 9.644zM51.5 9.644L55.517 12l-1.066-4.44L58 4.573l-4.673-.386L51.5 0l-1.827 4.187L45 4.573l3.549 2.987L47.483 12 51.5 9.644zM66.5 9.644L70.517 12l-1.066-4.44L73 4.573l-4.674-.386L66.5 0l-1.826 4.187L60 4.573l3.549 2.987L62.483 12 66.5 9.644z" fill="#FF9000"/></svg>